<?xml version="1.0" encoding="UTF-8" standalone="no"?>
<svg
   xmlns:dc="http://purl.org/dc/elements/1.1/"
   xmlns:cc="http://creativecommons.org/ns#"
   xmlns:rdf="http://www.w3.org/1999/02/22-rdf-syntax-ns#"
   xmlns:svg="http://www.w3.org/2000/svg"
   xmlns="http://www.w3.org/2000/svg"
   width="245"
   height="245"
   viewBox="0 0 64.822913 64.822918"
   version="1.1"
   id="svg1433">
  <defs
     id="defs1427" />
  <metadata
     id="metadata1430">
    <rdf:RDF>
      <cc:Work
         rdf:about="">
        <dc:format>image/svg+xml</dc:format>
        <dc:type
           rdf:resource="http://purl.org/dc/dcmitype/StillImage" />
        <dc:title></dc:title>
      </cc:Work>
    </rdf:RDF>
  </metadata>
  <g
     id="layer1"
     style="display:none">
    <g
       id="g2036"
       style="display:inline">
      <path
         style="color:#000000;font-style:normal;font-variant:normal;font-weight:normal;font-stretch:normal;font-size:138.546px;line-height:1.25;font-family:'Trend Slab';-inkscape-font-specification:'Trend Slab';font-variant-ligatures:normal;font-variant-position:normal;font-variant-caps:normal;font-variant-numeric:normal;font-variant-alternates:normal;font-variant-east-asian:normal;font-feature-settings:normal;font-variation-settings:normal;text-indent:0;text-align:start;text-decoration:none;text-decoration-line:none;text-decoration-style:solid;text-decoration-color:#000000;letter-spacing:normal;word-spacing:normal;text-transform:none;writing-mode:lr-tb;direction:ltr;text-orientation:mixed;dominant-baseline:auto;baseline-shift:baseline;text-anchor:start;white-space:normal;shape-padding:0;shape-margin:0;inline-size:0;clip-rule:nonzero;display:inline;overflow:visible;visibility:visible;opacity:1;isolation:auto;mix-blend-mode:normal;color-interpolation:sRGB;color-interpolation-filters:linearRGB;solid-color:#000000;solid-opacity:1;vector-effect:none;fill:#3a9e3e;fill-opacity:1;fill-rule:nonzero;stroke:none;stroke-width:0.610575;stroke-linecap:butt;stroke-linejoin:miter;stroke-miterlimit:4;stroke-dasharray:none;stroke-dashoffset:0;stroke-opacity:1;color-rendering:auto;image-rendering:auto;shape-rendering:auto;text-rendering:auto;enable-background:accumulate;stop-color:#000000;stop-opacity:1"
         d="M 98.75801,50.126036 V 21.166666 H 85.351555 l 0.949129,9.846186 c -0.474565,-1.621725 -3.915161,-9.846186 -24.321445,-9.846186 -22.185904,0 -40.812573,18.533997 -40.812573,42.049003 0,24.094195 18.745309,42.164841 46.981915,42.164841 19.813079,0 32.270409,-9.267009 32.270409,-9.267009 V 61.246432 H 62.928368 v 12.85796 h 23.253675 v 14.479685 c -4.508367,1.621724 -11.270915,3.243448 -18.982592,3.243448 -17.321616,0 -30.134865,-12.047096 -30.134865,-28.38018 0,-16.680598 10.321785,-28.727694 27.406118,-28.727694 13.169172,0 20.643568,7.181923 20.999492,15.406385 z M 55.572613,55.454559 43.35257,47.57761 l -0.830488,1.390051 12.220042,7.876947 c 0.237282,-0.46335 0.474565,-0.9267 0.830489,-1.390049 z m -3.08467,6.371061 -11.982761,-7.761111 c -0.237283,0.579188 -0.355924,1.158375 -0.474565,1.621724 l 12.101402,7.761112 z m 7.711676,-11.699584 -12.220042,-7.876949 -1.186413,1.158374 12.101402,7.761112 z M 110.50347,107.46559 98.402087,99.704475 c -0.474571,0.347515 -1.067769,0.579185 -1.660977,0.926695 l 12.1014,7.64527 z M 53.911636,58.582171 41.691593,50.705223 41.098387,52.21111 53.19979,59.972221 Z M 63.16565,47.809285 51.182888,40.164012 c -0.593206,0.231675 -1.06777,0.579187 -1.542335,0.926699 l 12.101404,7.761112 z m -5.576136,4.865175 -12.101403,-7.87695 -1.06777,1.274213 12.220044,7.761111 z m -6.525266,16.564758 -11.86412,-7.645273 v 1.8534 l 11.745478,7.645273 c 0,-0.695025 0.118642,-1.274213 0.118642,-1.8534 z m 55.642712,39.963932 -11.982751,-7.64528 -1.660977,0.81087 11.982758,7.64527 z m -4.03379,1.62172 -11.86412,-7.64528 -1.779619,0.69503 11.745479,7.52944 z M 51.657454,65.532419 39.556052,57.771309 c -0.118641,0.579186 -0.118641,1.158374 -0.118641,1.737562 l 11.864119,7.645272 z m 1.423694,-26.410945 11.982761,7.645273 c 0.474565,-0.347512 1.067772,-0.579186 1.660977,-0.810862 L 54.979406,38.42645 c -0.711847,0.231675 -1.305052,0.347513 -1.898258,0.695024 z m 60.744292,66.374866 -12.1014,-7.761099 -1.4237,0.926699 12.10141,7.76111 c 0.71184,-0.46336 1.1864,-0.69503 1.42369,-0.92671 z M 102.55452,91.711688 114.3,99.35696 v -1.853399 l -11.74548,-7.645273 z m -1.66096,-59.424624 11.74546,7.529436 v -1.8534 l -11.74546,-7.529435 z m 1.66096,63.594777 11.74548,7.645269 v -1.8534 l -11.74548,-7.645268 z m 0,-8.340302 L 114.3,95.186822 V 93.333414 L 102.55452,85.68814 Z m 0,-16.680595 11.74548,7.645272 v -1.853399 l -11.74548,-7.645275 z m -1.66096,-26.063434 11.74546,7.529437 v -1.8534 l -11.74546,-7.529436 z m 0,-8.340297 11.74546,7.529435 V 42.13325 l -11.74546,-7.529437 z m 0,4.170148 11.74546,7.529437 v -1.8534 L 100.89356,38.773963 Z M 102.55452,83.37139 114.3,91.016664 V 89.163263 L 102.55452,81.51799 Z m -1.66096,-55.254475 11.74546,7.529435 v -1.853399 l -11.74546,-7.529436 z m 0,20.850746 11.74546,7.529435 V 54.643697 L 100.89356,47.11426 Z m 1.66096,30.233581 11.74548,7.645271 v -1.853399 l -11.74548,-7.645272 z m 0,-4.17015 11.74548,7.645273 v -1.853399 l -11.74548,-7.645273 z m -62.998468,-7.181924 11.389554,7.4136 V 73.293531 L 39.318769,65.879932 c 0,0.695024 0.118642,1.274211 0.237283,1.969236 z m 58.727397,44.249912 -11.626841,-7.41359 c -0.711847,0.11583 -1.305053,0.34751 -2.016901,0.57918 l 11.626832,7.4136 c 0.711856,-0.11584 1.305054,-0.34752 2.01691,-0.57919 z M 102.55452,66.690794 114.3,74.336068 v -1.8534 L 102.55452,64.953231 Z M 93.537797,113.25745 82.0296,105.84386 c -0.711846,0.23168 -1.423693,0.34751 -2.135541,0.46335 l 11.389555,7.29776 z m -5.338855,0.69503 -11.152272,-7.18191 -2.491466,0.3475 11.033633,7.06609 c 0.949129,0 1.779618,-0.11584 2.610105,-0.23168 z M 70.99597,44.565835 59.606413,37.268076 l -2.254182,0.347512 11.626838,7.529435 c 0.593206,-0.231675 1.305053,-0.347513 2.016901,-0.579188 z m 5.220211,-0.810861 -10.796348,-6.950248 h -0.949129 c -0.711848,0 -1.305054,0 -1.89826,0.115837 l 11.152273,7.066085 c 0.830487,-0.115837 1.660977,-0.231674 2.491464,-0.231674 z M 112.63902,59.045521 V 58.813845 L 100.89356,51.28441 v 0.9267 h -1.423694 l 10.559054,6.834411 z m -71.777915,13.78466 10.796349,6.950248 C 51.420172,79.085404 51.420172,78.390379 51.30153,77.695355 L 40.030617,70.51343 c 0.237282,0.810863 0.474565,1.621725 0.830488,2.316751 z M 112.63902,30.201989 100.89356,22.556715 v 1.737563 l 11.74546,7.529436 z M 82.148241,114.3 71.470534,107.34975 c -0.949129,0.11584 -1.898259,0.11584 -2.847388,0.11584 l 10.559066,6.71857 C 80.131341,114.3 81.199112,114.3 82.148241,114.3 Z m 11.152274,-62.08889 10.677695,6.834411 h 2.8474 L 96.147901,52.21111 Z m -9.254014,30.812768 v -0.926699 l -9.254013,-5.907712 h -2.847389 l 10.559066,6.834411 z m -8.898089,30.812772 -10.084503,-6.4869 c -1.186412,0 -2.254182,-0.11584 -3.321952,-0.23168 l 9.609936,6.13938 c 1.186412,0.23168 2.491464,0.46335 3.796519,0.5792 z m -30.728071,-34.403734 9.016731,5.676036 -1.067771,-2.432587 -9.96586,-6.486898 c 0.593205,1.158375 1.305053,2.200912 2.0169,3.243449 z m 32.270406,3.590962 h 2.254181 L 68.267222,76.189467 H 66.131681 Z M 65.657115,111.8674 57.23359,106.53888 c -1.542336,-0.34751 -3.084671,-0.57919 -4.508365,-1.04254 l 5.457494,3.47513 c 2.254183,1.15837 4.86429,2.08508 7.474396,2.89593 z M 80.368623,43.639137 C 77.995799,40.743199 74.555204,38.310612 69.928198,37.383913 l 9.728578,6.255224 z m -1.898259,32.55033 5.576137,3.590962 V 77.927028 L 81.317754,76.189467 Z M 99.23257,59.045521 h 2.13554 L 90.690408,52.21111 h -2.0169 z"
         id="path2026" />
    </g>
  </g>
  <g
     id="g24"
     style="display:inline;opacity:0.8">
    <g
       id="g22"
       style="display:inline;fill:#ffffff;fill-opacity:1"
       transform="matrix(0.69602271,0,0,0.69602271,-14.73248,-14.73248)">
      <path
         style="color:#000000;font-style:normal;font-variant:normal;font-weight:normal;font-stretch:normal;font-size:138.546px;line-height:1.25;font-family:'Trend Slab';-inkscape-font-specification:'Trend Slab';font-variant-ligatures:normal;font-variant-position:normal;font-variant-caps:normal;font-variant-numeric:normal;font-variant-alternates:normal;font-variant-east-asian:normal;font-feature-settings:normal;font-variation-settings:normal;text-indent:0;text-align:start;text-decoration:none;text-decoration-line:none;text-decoration-style:solid;text-decoration-color:#000000;letter-spacing:normal;word-spacing:normal;text-transform:none;writing-mode:lr-tb;direction:ltr;text-orientation:mixed;dominant-baseline:auto;baseline-shift:baseline;text-anchor:start;white-space:normal;shape-padding:0;shape-margin:0;inline-size:0;clip-rule:nonzero;display:inline;overflow:visible;visibility:visible;opacity:1;isolation:auto;mix-blend-mode:normal;color-interpolation:sRGB;color-interpolation-filters:linearRGB;solid-color:#000000;solid-opacity:1;vector-effect:none;fill:#ffffff;fill-opacity:1;fill-rule:nonzero;stroke:none;stroke-width:0.610575;stroke-linecap:butt;stroke-linejoin:miter;stroke-miterlimit:4;stroke-dasharray:none;stroke-dashoffset:0;stroke-opacity:1;color-rendering:auto;image-rendering:auto;shape-rendering:auto;text-rendering:auto;enable-background:accumulate;stop-color:#000000;stop-opacity:1"
         d="M 55.572613,55.454559 43.35257,47.57761 l -0.830488,1.390051 12.220042,7.876947 c 0.237282,-0.46335 0.474565,-0.9267 0.830489,-1.390049 z m -3.08467,6.371061 -11.982761,-7.761111 c -0.237283,0.579188 -0.355924,1.158375 -0.474565,1.621724 l 12.101402,7.761112 z m 7.711676,-11.699584 -12.220042,-7.876949 -1.186413,1.158374 12.101402,7.761112 z M 110.50347,107.46559 98.402087,99.704475 c -0.474571,0.347515 -1.067769,0.579185 -1.660977,0.926695 l 12.1014,7.64527 z M 53.911636,58.582171 41.691593,50.705223 41.098387,52.21111 53.19979,59.972221 Z M 63.16565,47.809285 51.182888,40.164012 c -0.593206,0.231675 -1.06777,0.579187 -1.542335,0.926699 l 12.101404,7.761112 z m -5.576136,4.865175 -12.101403,-7.87695 -1.06777,1.274213 12.220044,7.761111 z m -6.525266,16.564758 -11.86412,-7.645273 v 1.8534 l 11.745478,7.645273 c 0,-0.695025 0.118642,-1.274213 0.118642,-1.8534 z m 55.642712,39.963932 -11.982751,-7.64528 -1.660977,0.81087 11.982758,7.64527 z m -4.03379,1.62172 -11.86412,-7.64528 -1.779619,0.69503 11.745479,7.52944 z M 51.657454,65.532419 39.556052,57.771309 c -0.118641,0.579186 -0.118641,1.158374 -0.118641,1.737562 l 11.864119,7.645272 z m 1.423694,-26.410945 11.982761,7.645273 c 0.474565,-0.347512 1.067772,-0.579186 1.660977,-0.810862 L 54.979406,38.42645 c -0.711847,0.231675 -1.305052,0.347513 -1.898258,0.695024 z m 60.744292,66.374866 -12.1014,-7.761099 -1.4237,0.926699 12.10141,7.76111 c 0.71184,-0.46336 1.1864,-0.69503 1.42369,-0.92671 z M 102.55452,91.711688 114.3,99.35696 v -1.853399 l -11.74548,-7.645273 z m -1.66096,-59.424624 11.74546,7.529436 v -1.8534 l -11.74546,-7.529435 z m 1.66096,63.594777 11.74548,7.645269 v -1.8534 l -11.74548,-7.645268 z m 0,-8.340302 L 114.3,95.186822 V 93.333414 L 102.55452,85.68814 Z m 0,-16.680595 11.74548,7.645272 v -1.853399 l -11.74548,-7.645275 z m -1.66096,-26.063434 11.74546,7.529437 v -1.8534 l -11.74546,-7.529436 z m 0,-8.340297 11.74546,7.529435 V 42.13325 l -11.74546,-7.529437 z m 0,4.170148 11.74546,7.529437 v -1.8534 L 100.89356,38.773963 Z M 102.55452,83.37139 114.3,91.016664 V 89.163263 L 102.55452,81.51799 Z m -1.66096,-55.254475 11.74546,7.529435 v -1.853399 l -11.74546,-7.529436 z m 0,20.850746 11.74546,7.529435 V 54.643697 L 100.89356,47.11426 Z m 1.66096,30.233581 11.74548,7.645271 v -1.853399 l -11.74548,-7.645272 z m 0,-4.17015 11.74548,7.645273 v -1.853399 l -11.74548,-7.645273 z m -62.998468,-7.181924 11.389554,7.4136 V 73.293531 L 39.318769,65.879932 c 0,0.695024 0.118642,1.274211 0.237283,1.969236 z m 58.727397,44.249912 -11.626841,-7.41359 c -0.711847,0.11583 -1.305053,0.34751 -2.016901,0.57918 l 11.626832,7.4136 c 0.711856,-0.11584 1.305054,-0.34752 2.01691,-0.57919 z M 102.55452,66.690794 114.3,74.336068 v -1.8534 L 102.55452,64.953231 Z M 93.537797,113.25745 82.0296,105.84386 c -0.711846,0.23168 -1.423693,0.34751 -2.135541,0.46335 l 11.389555,7.29776 z m -5.338855,0.69503 -11.152272,-7.18191 -2.491466,0.3475 11.033633,7.06609 c 0.949129,0 1.779618,-0.11584 2.610105,-0.23168 z M 70.99597,44.565835 59.606413,37.268076 l -2.254182,0.347512 11.626838,7.529435 c 0.593206,-0.231675 1.305053,-0.347513 2.016901,-0.579188 z m 5.220211,-0.810861 -10.796348,-6.950248 h -0.949129 c -0.711848,0 -1.305054,0 -1.89826,0.115837 l 11.152273,7.066085 c 0.830487,-0.115837 1.660977,-0.231674 2.491464,-0.231674 z M 112.63902,59.045521 V 58.813845 L 100.89356,51.28441 v 0.9267 h -1.423694 l 10.559054,6.834411 z m -71.777915,13.78466 10.796349,6.950248 C 51.420172,79.085404 51.420172,78.390379 51.30153,77.695355 L 40.030617,70.51343 c 0.237282,0.810863 0.474565,1.621725 0.830488,2.316751 z M 112.63902,30.201989 100.89356,22.556715 v 1.737563 l 11.74546,7.529436 z M 82.148241,114.3 71.470534,107.34975 c -0.949129,0.11584 -1.898259,0.11584 -2.847388,0.11584 l 10.559066,6.71857 C 80.131341,114.3 81.199112,114.3 82.148241,114.3 Z m 11.152274,-62.08889 10.677695,6.834411 h 2.8474 L 96.147901,52.21111 Z m -9.254014,30.812768 v -0.926699 l -9.254013,-5.907712 h -2.847389 l 10.559066,6.834411 z m -8.898089,30.812772 -10.084503,-6.4869 c -1.186412,0 -2.254182,-0.11584 -3.321952,-0.23168 l 9.609936,6.13938 c 1.186412,0.23168 2.491464,0.46335 3.796519,0.5792 z m -30.728071,-34.403734 9.016731,5.676036 -1.067771,-2.432587 -9.96586,-6.486898 c 0.593205,1.158375 1.305053,2.200912 2.0169,3.243449 z m 32.270406,3.590962 h 2.254181 L 68.267222,76.189467 H 66.131681 Z M 65.657115,111.8674 57.23359,106.53888 c -1.542336,-0.34751 -3.084671,-0.57919 -4.508365,-1.04254 l 5.457494,3.47513 c 2.254183,1.15837 4.86429,2.08508 7.474396,2.89593 z M 80.368623,43.639137 C 77.995799,40.743199 74.555204,38.310612 69.928198,37.383913 l 9.728578,6.255224 z m -1.898259,32.55033 5.576137,3.590962 V 77.927028 L 81.317754,76.189467 Z M 99.23257,59.045521 h 2.13554 L 90.690408,52.21111 h -2.0169 z"
         id="path20" />
    </g>
  </g>
  <g
     id="g2054"
     style="display:inline">
    <g
       id="g2052"
       style="display:inline;fill:#ffffff;fill-opacity:1"
       transform="matrix(0.69602271,0,0,0.69602271,-14.73248,-14.73248)">
      <path
         style="color:#000000;font-style:normal;font-variant:normal;font-weight:normal;font-stretch:normal;font-size:138.546px;line-height:1.25;font-family:'Trend Slab';-inkscape-font-specification:'Trend Slab';font-variant-ligatures:normal;font-variant-position:normal;font-variant-caps:normal;font-variant-numeric:normal;font-variant-alternates:normal;font-variant-east-asian:normal;font-feature-settings:normal;font-variation-settings:normal;text-indent:0;text-align:start;text-decoration:none;text-decoration-line:none;text-decoration-style:solid;text-decoration-color:#000000;letter-spacing:normal;word-spacing:normal;text-transform:none;writing-mode:lr-tb;direction:ltr;text-orientation:mixed;dominant-baseline:auto;baseline-shift:baseline;text-anchor:start;white-space:normal;shape-padding:0;shape-margin:0;inline-size:0;clip-rule:nonzero;display:inline;overflow:visible;visibility:visible;opacity:1;isolation:auto;mix-blend-mode:normal;color-interpolation:sRGB;color-interpolation-filters:linearRGB;solid-color:#000000;solid-opacity:1;vector-effect:none;fill:#ffffff;fill-opacity:1;fill-rule:nonzero;stroke:none;stroke-width:0.610575;stroke-linecap:butt;stroke-linejoin:miter;stroke-miterlimit:4;stroke-dasharray:none;stroke-dashoffset:0;stroke-opacity:1;color-rendering:auto;image-rendering:auto;shape-rendering:auto;text-rendering:auto;enable-background:accumulate;stop-color:#000000;stop-opacity:1"
         d="M 98.75801,50.126036 V 21.166666 H 85.351555 l 0.949129,9.846186 c -0.474565,-1.621725 -3.915161,-9.846186 -24.321445,-9.846186 -22.185904,0 -40.812573,18.533997 -40.812573,42.049003 0,24.094195 18.745309,42.164841 46.981915,42.164841 19.813079,0 32.270409,-9.267009 32.270409,-9.267009 V 61.246432 H 62.928368 v 12.85796 h 23.253675 v 14.479685 c -4.508367,1.621724 -11.270915,3.243448 -18.982592,3.243448 -17.321616,0 -30.134865,-12.047096 -30.134865,-28.38018 0,-16.680598 10.321785,-28.727694 27.406118,-28.727694 13.169172,0 20.643568,7.181923 20.999492,15.406385 z"
         id="path2050" />
    </g>
  </g>
</svg>
